<?xml version="1.0" encoding="UTF-8"?>
<svg id="Camada_2" data-name="Camada 2" xmlns="http://www.w3.org/2000/svg" xmlns:xlink="http://www.w3.org/1999/xlink" viewBox="0 0 244.33 91.2">
  <defs>
    <style>
      .cls-1 {
        fill: #fff;
      }

      .cls-2 {
        fill: url(#Gradiente_sem_nome_14);
        stroke: url(#Gradiente_sem_nome_10);
        stroke-miterlimit: 10;
        stroke-width: .5px;
      }

      .cls-3 {
        fill: #4aa5f6;
      }
    </style>
    <linearGradient id="Gradiente_sem_nome_14" data-name="Gradiente sem nome 14" x1="100.61" y1="13.68" x2="119.61" y2="13.68" gradientUnits="userSpaceOnUse">
      <stop offset="0" stop-color="#4aa5f6"/>
      <stop offset="1" stop-color="#184dc4"/>
    </linearGradient>
    <radialGradient id="Gradiente_sem_nome_10" data-name="Gradiente sem nome 10" cx="110.23" cy="13.94" fx="110.23" fy="13.94" r="12.08" gradientUnits="userSpaceOnUse">
      <stop offset="0" stop-color="#fff"/>
      <stop offset="1" stop-color="#184dc4"/>
    </radialGradient>
  </defs>
  <g id="Elements">
    <path class="cls-1" d="m128.33.25h12.32v43.12h-12.32V.25Z"/>
    <path class="cls-1" d="m149.37.25h24.64l36.96,40.04h2.46l-2.46-10.47V.25h12.32v43.12h-24.64L161.69,3.33h-2.46l2.46,10.47v29.57h-12.32V.25Z"/>
    <path class="cls-1" d="m232.01.25h12.32v43.12h-12.32V.25Z"/>
    <path class="cls-3" d="m121.51,52.09h1.07c.3,0,.5.2.5.5v24.36c0,.3-.2.5-.5.5h-1.07c-.3,0-.5-.2-.5-.5v-2.27c-.63,1.87-2.17,2.77-5.65,2.77h-4.71c-5.75,0-6.92-2.31-6.92-7.32v-4.04c0-5.15,1.17-7.42,6.92-7.42h4.71c3.48,0,5.01.87,5.65,2.77v-8.85c0-.3.2-.5.5-.5Zm-.5,18.14v-4.24c0-4.61-1.5-5.31-4.85-5.31h-5.48c-4.04,0-4.88.9-4.88,5.31v4.24c0,4.28.87,5.21,4.88,5.21h5.48c3.31,0,4.85-.74,4.85-5.21Z"/>
    <path class="cls-3" d="m149.23,70.03v-4.04c0-5.01,1.17-7.32,6.92-7.32h4.71c5.75,0,6.92,2.31,6.92,7.32v2.81c0,.3-.2.5-.5.5h-15.97v.84c0,4.41.84,5.31,4.88,5.31h9.59c.3,0,.5.2.5.5v1c0,.3-.2.5-.5.5h-9.62c-5.75,0-6.92-2.27-6.92-7.42Zm16.47-2.67v-1.47c0-4.28-.87-5.21-4.88-5.21h-4.64c-4.01,0-4.88.94-4.88,5.21v1.47h14.4Z"/>
    <path class="cls-3" d="m203.48,77.08l-9.49-17.81c-.17-.33,0-.6.37-.6h1.24c.27,0,.47.1.6.37l8.69,16.41,8.69-16.41c.13-.27.33-.37.6-.37h1.27c.37,0,.5.27.33.6l-9.49,17.81c-.13.27-.33.37-.6.37h-1.6c-.27,0-.47-.1-.6-.37Z"/>
    <path class="cls-3" d="m228.92,80.07v-.84c0-.3.2-.5.5-.5h14.4c.3,0,.5.2.5.5v.84c0,.3-.2.5-.5.5h-14.4c-.3,0-.5-.2-.5-.5Z"/>
    <polygon class="cls-2" points="100.61 .25 100.61 27.1 119.61 .25 100.61 .25"/>
    <polygon class="cls-1" points="76.42 .25 65.74 15.34 65.74 19.79 65.74 36.31 65.74 38.76 73.68 49.98 72.27 51.98 65.95 60.96 23.01 .25 0 .25 0 13.01 49.98 83.65 55.29 91.16 55.32 91.2 67.17 74.37 67.98 73.23 71.31 68.52 83.01 51.98 91.89 39.43 91.89 .25 86.12 .25 76.42 .25"/>
  </g>
</svg>